<?xml version="1.0" encoding="utf-8"?>
<!-- Generator: Adobe Illustrator 26.1.0, SVG Export Plug-In . SVG Version: 6.00 Build 0)  -->
<svg version="1.1" id="Layer_1" xmlns="http://www.w3.org/2000/svg" xmlns:xlink="http://www.w3.org/1999/xlink" x="0px" y="0px"
	 viewBox="0 0 242 78" style="enable-background:new 0 0 242 78;" xml:space="preserve">
<style type="text/css">
	.st0{enable-background:new    ;}
	.st1{fill:#FFFFFF;}
	.st2{fill:#002891;}
	.st3{fill:#CB0F22;}
</style>
<g id="Group_5" transform="translate(-809 -34)">
	<g class="st0">
		<path class="st1" d="M809.69,103.07h2.67c0.69,0,1.2,0.05,1.52,0.16c0.33,0.1,0.56,0.29,0.69,0.56s0.19,0.7,0.19,1.28v0.25
			c0,0.57-0.07,1-0.2,1.28s-0.37,0.47-0.69,0.57c-0.33,0.1-0.82,0.16-1.48,0.16h-1.88v2.54h-0.82V103.07z M812.28,106.66
			c0.51,0,0.87-0.03,1.1-0.1s0.38-0.19,0.46-0.37s0.12-0.46,0.12-0.86v-0.29c0-0.4-0.04-0.69-0.12-0.86s-0.23-0.3-0.46-0.36
			s-0.6-0.09-1.11-0.09h-1.76v2.93H812.28z"/>
		<path class="st1" d="M815.79,109.87l2.47-6.8h1.19l2.42,6.8H821l-0.53-1.54h-3.28l-0.54,1.54H815.79z M817.38,107.69h2.88
			l-1.38-4.01h-0.06L817.38,107.69z"/>
		<path class="st1" d="M823.67,103.07h2.9c0.6,0,1.05,0.05,1.35,0.17c0.3,0.11,0.51,0.29,0.63,0.55s0.17,0.65,0.17,1.16v0.23
			c0,0.37-0.03,0.66-0.1,0.89c-0.07,0.22-0.17,0.39-0.3,0.5c-0.14,0.11-0.32,0.19-0.55,0.24v0.02c0.26,0.05,0.46,0.13,0.59,0.25
			s0.23,0.29,0.28,0.54c0.05,0.25,0.08,0.59,0.08,1.04v1.22h-0.83v-0.92c0-0.55-0.03-0.95-0.09-1.17c-0.06-0.23-0.19-0.38-0.38-0.46
			s-0.52-0.12-0.98-0.12h-1.96v2.67h-0.82L823.67,103.07L823.67,103.07z M826.72,106.55c0.31,0,0.54-0.04,0.71-0.11
			c0.17-0.08,0.29-0.2,0.36-0.38s0.1-0.43,0.1-0.75v-0.25c0-0.39-0.04-0.67-0.11-0.85s-0.21-0.3-0.42-0.37
			c-0.21-0.07-0.53-0.1-0.97-0.1h-1.91v2.82L826.72,106.55L826.72,106.55L826.72,106.55z"/>
		<path class="st1" d="M831.03,109.87v-6.8h0.82v3.01h0.76l2.67-3.01h1l-3.01,3.31l3.2,3.49h-1.08l-2.81-3.15h-0.73v3.15
			C831.85,109.87,831.03,109.87,831.03,109.87z"/>
		<path class="st1" d="M838.24,109.87v-6.8h0.83v6.8H838.24z"/>
		<path class="st1" d="M841.45,109.87v-6.8h1.28l3.6,6.07h0.03l-0.02-6.07h0.79v6.8h-1.26l-3.61-6.09h-0.04l0.01,6.09
			C842.23,109.87,841.45,109.87,841.45,109.87z"/>
		<path class="st1" d="M850.36,109.67c-0.38-0.17-0.64-0.48-0.79-0.92c-0.15-0.44-0.22-1.11-0.22-2v-0.58c0-0.9,0.08-1.57,0.23-2.01
			s0.42-0.75,0.8-0.91s0.94-0.24,1.68-0.24h0.18c0.67,0,1.19,0.06,1.54,0.18c0.36,0.12,0.61,0.31,0.76,0.58
			c0.15,0.27,0.22,0.65,0.22,1.15v0.16h-0.78v-0.14c0-0.35-0.04-0.61-0.14-0.78c-0.09-0.17-0.26-0.29-0.5-0.37s-0.61-0.11-1.09-0.11
			h-0.15c-0.57,0-0.98,0.06-1.23,0.17s-0.43,0.34-0.53,0.68c-0.1,0.34-0.15,0.89-0.15,1.65v0.57c0,0.74,0.05,1.28,0.15,1.62
			c0.1,0.34,0.28,0.57,0.54,0.69c0.26,0.12,0.67,0.17,1.22,0.17h0.15c0.51,0,0.88-0.04,1.13-0.12s0.42-0.22,0.52-0.42
			c0.1-0.21,0.15-0.53,0.15-0.97v-0.61h-2.12v-0.62h2.92v1.14c0,0.62-0.07,1.09-0.22,1.41c-0.15,0.32-0.4,0.55-0.77,0.68
			s-0.9,0.2-1.6,0.2h-0.18C851.31,109.93,850.74,109.84,850.36,109.67z"/>
		<path class="st1" d="M859.93,109.87l2.47-6.8h1.19l2.42,6.8h-0.87l-0.53-1.54h-3.28l-0.54,1.54H859.93z M861.52,107.69h2.88
			l-1.38-4.01h-0.06L861.52,107.69z"/>
		<path class="st1" d="M868.66,109.76c-0.36-0.11-0.6-0.33-0.75-0.64s-0.21-0.8-0.21-1.46v-4.59h0.83v4.52
			c0,0.5,0.04,0.86,0.13,1.09c0.09,0.23,0.25,0.38,0.49,0.45s0.61,0.11,1.13,0.11h0.19c0.52,0,0.9-0.04,1.14-0.11
			s0.41-0.22,0.5-0.45c0.09-0.23,0.14-0.59,0.14-1.09v-4.52h0.83v4.59c0,0.66-0.07,1.15-0.21,1.46s-0.4,0.53-0.75,0.64
			s-0.91,0.17-1.66,0.17h-0.15C869.57,109.93,869.02,109.87,868.66,109.76z"/>
		<path class="st1" d="M877.01,109.87v-6.13h-2.16v-0.67H880v0.67h-2.16v6.13H877.01z"/>
		<path class="st1" d="M882.46,109.68c-0.38-0.17-0.65-0.47-0.81-0.92c-0.15-0.44-0.23-1.11-0.23-2v-0.58c0-0.89,0.08-1.56,0.23-2
			c0.15-0.44,0.42-0.75,0.81-0.92c0.38-0.17,0.96-0.25,1.73-0.25h0.19c0.77,0,1.35,0.08,1.73,0.25s0.65,0.47,0.8,0.92
			c0.15,0.45,0.23,1.11,0.23,2v0.58c0,0.89-0.08,1.56-0.23,2s-0.42,0.75-0.8,0.92s-0.96,0.25-1.73,0.25h-0.19
			C883.43,109.93,882.85,109.84,882.46,109.68z M884.39,109.24c0.57,0,0.99-0.06,1.25-0.17c0.26-0.12,0.44-0.34,0.54-0.68
			c0.1-0.34,0.15-0.88,0.15-1.63v-0.57c0-0.75-0.05-1.3-0.15-1.64c-0.1-0.34-0.28-0.57-0.54-0.68c-0.26-0.12-0.68-0.18-1.25-0.18
			h-0.18c-0.58,0-1,0.06-1.27,0.18c-0.26,0.12-0.44,0.34-0.54,0.68s-0.15,0.89-0.15,1.64v0.57c0,0.75,0.05,1.3,0.15,1.63
			c0.1,0.34,0.28,0.56,0.54,0.68c0.26,0.12,0.69,0.17,1.27,0.17H884.39z"/>
		<path class="st1" d="M889.38,109.87v-6.8h1.29l2.38,5.97h0.03l2.35-5.97h1.27v6.8h-0.78l0.02-6.1h-0.03l-2.44,6.1h-0.84l-2.46-6.1
			h-0.03l0.02,6.1H889.38z"/>
		<path class="st1" d="M898.5,109.87l2.47-6.8h1.19l2.42,6.8h-0.87l-0.53-1.54h-3.28l-0.54,1.54H898.5z M900.09,107.69h2.88
			l-1.38-4.01h-0.06L900.09,107.69z"/>
		<path class="st1" d="M907.21,109.87v-6.13h-2.16v-0.67h5.15v0.67h-2.16v6.13H907.21z"/>
		<path class="st1" d="M912,109.87v-6.8h0.83v6.8H912z"/>
		<path class="st1" d="M916.08,109.68c-0.38-0.17-0.65-0.47-0.81-0.92c-0.15-0.44-0.23-1.11-0.23-2v-0.58c0-0.89,0.08-1.56,0.23-2
			c0.15-0.44,0.42-0.75,0.81-0.92c0.38-0.17,0.96-0.25,1.73-0.25H918c0.77,0,1.35,0.08,1.73,0.25s0.65,0.47,0.8,0.92
			c0.15,0.45,0.23,1.11,0.23,2v0.58c0,0.89-0.08,1.56-0.23,2s-0.42,0.75-0.8,0.92s-0.96,0.25-1.73,0.25h-0.19
			C917.05,109.93,916.47,109.84,916.08,109.68z M918.01,109.24c0.57,0,0.99-0.06,1.25-0.17c0.26-0.12,0.44-0.34,0.54-0.68
			c0.1-0.34,0.15-0.88,0.15-1.63v-0.57c0-0.75-0.05-1.3-0.15-1.64c-0.1-0.34-0.28-0.57-0.54-0.68c-0.26-0.12-0.68-0.18-1.25-0.18
			h-0.18c-0.58,0-1,0.06-1.27,0.18c-0.26,0.12-0.44,0.34-0.54,0.68s-0.15,0.89-0.15,1.64v0.57c0,0.75,0.05,1.3,0.15,1.63
			c0.1,0.34,0.28,0.56,0.54,0.68c0.26,0.12,0.69,0.17,1.27,0.17H918.01z"/>
		<path class="st1" d="M923,109.87v-6.8h1.28l3.6,6.07h0.03l-0.02-6.07h0.79v6.8h-1.26l-3.61-6.09h-0.04l0.01,6.09
			C923.78,109.87,923,109.87,923,109.87z"/>
		<path class="st1" d="M930.79,110.65c0.12,0,0.21-0.01,0.27-0.04s0.11-0.08,0.13-0.16c0.03-0.07,0.04-0.18,0.04-0.32v-0.27h-0.28
			v-1.05h0.82v1.26c0,0.27-0.03,0.47-0.1,0.62c-0.06,0.15-0.16,0.25-0.3,0.31s-0.34,0.09-0.59,0.09v-0.44
			C930.78,110.65,930.79,110.65,930.79,110.65z"/>
		<path class="st1" d="M937.54,109.87v-6.8h0.83v6.8H937.54z"/>
		<path class="st1" d="M940.75,109.87v-6.8h1.28l3.6,6.07h0.03l-0.02-6.07h0.79v6.8h-1.26l-3.61-6.09h-0.04l0.01,6.09
			C941.53,109.87,940.75,109.87,940.75,109.87z"/>
		<path class="st1" d="M950.39,109.87v-6.13h-2.16v-0.67h5.15v0.67h-2.16v6.13H950.39z"/>
		<path class="st1" d="M955.19,109.87v-6.8h4.4v0.66h-3.57v2.3h3.37v0.64h-3.37v2.53h3.6v0.67H955.19z"/>
		<path class="st1" d="M961.64,109.87v-6.8h0.83v6.12h3.26v0.68H961.64z"/>
		<path class="st1" d="M967.53,109.87v-6.8h0.83v6.12h3.26v0.68H967.53z"/>
		<path class="st1" d="M973.43,109.87v-6.8h0.83v6.8H973.43z"/>
		<path class="st1" d="M977.49,109.67c-0.38-0.17-0.64-0.48-0.79-0.92s-0.22-1.11-0.22-2v-0.58c0-0.9,0.08-1.57,0.24-2.01
			s0.42-0.75,0.8-0.91s0.94-0.24,1.69-0.24h0.18c0.67,0,1.19,0.06,1.54,0.18c0.36,0.12,0.61,0.31,0.76,0.58
			c0.15,0.27,0.22,0.65,0.22,1.15v0.16h-0.8v-0.14c0-0.35-0.04-0.61-0.14-0.78c-0.09-0.17-0.26-0.29-0.5-0.37s-0.61-0.11-1.09-0.11
			h-0.15c-0.57,0-0.98,0.06-1.23,0.17c-0.26,0.11-0.43,0.34-0.53,0.68s-0.15,0.89-0.15,1.65v0.57c0,0.74,0.05,1.28,0.15,1.62
			c0.1,0.34,0.28,0.57,0.54,0.69c0.26,0.12,0.67,0.17,1.22,0.17h0.15c0.51,0,0.88-0.04,1.13-0.12s0.42-0.22,0.51-0.42
			c0.1-0.21,0.15-0.53,0.15-0.97v-0.61h-2.12v-0.62h2.92v1.14c0,0.62-0.07,1.09-0.22,1.41c-0.15,0.32-0.4,0.55-0.77,0.68
			s-0.9,0.2-1.6,0.2h-0.18C978.44,109.93,977.87,109.84,977.49,109.67z"/>
		<path class="st1" d="M984.17,109.87v-6.8h4.4v0.66H985v2.3h3.37v0.64H985v2.53h3.6v0.67H984.17z"/>
		<path class="st1" d="M990.61,109.87v-6.8h1.28l3.6,6.07h0.03l-0.02-6.07h0.79v6.8h-1.26l-3.61-6.09h-0.04l0.01,6.09
			C991.39,109.87,990.61,109.87,990.61,109.87z"/>
		<path class="st1" d="M1000.26,109.87v-6.13h-2.16v-0.67h5.15v0.67h-2.16v6.13H1000.26z"/>
		<path class="st1" d="M1010.11,109.87v-6.13h-2.16v-0.67h5.15v0.67h-2.16v6.13H1010.11z"/>
		<path class="st1" d="M1014.91,103.07h2.9c0.6,0,1.05,0.05,1.36,0.17c0.3,0.11,0.51,0.29,0.63,0.55s0.17,0.65,0.17,1.16v0.23
			c0,0.37-0.03,0.66-0.1,0.89c-0.07,0.22-0.17,0.39-0.3,0.5c-0.14,0.11-0.32,0.19-0.55,0.24v0.02c0.26,0.05,0.46,0.13,0.59,0.25
			s0.23,0.29,0.28,0.54c0.05,0.25,0.08,0.59,0.08,1.04v1.22h-0.83v-0.92c0-0.55-0.03-0.95-0.09-1.17c-0.06-0.23-0.19-0.38-0.38-0.46
			s-0.52-0.12-0.98-0.12h-1.96v2.67h-0.82L1014.91,103.07L1014.91,103.07z M1017.96,106.55c0.31,0,0.54-0.04,0.71-0.11
			c0.17-0.08,0.29-0.2,0.36-0.38s0.11-0.43,0.11-0.75v-0.25c0-0.39-0.04-0.67-0.11-0.85s-0.21-0.3-0.42-0.37
			c-0.21-0.07-0.53-0.1-0.97-0.1h-1.91v2.82L1017.96,106.55L1017.96,106.55L1017.96,106.55z"/>
		<path class="st1" d="M1021.7,109.87l2.47-6.8h1.19l2.42,6.8h-0.87l-0.53-1.54h-3.28l-0.54,1.54H1021.7z M1023.28,107.69h2.88
			l-1.38-4.01h-0.06L1023.28,107.69z"/>
		<path class="st1" d="M1029.58,109.87v-6.8h4.31v0.68h-3.48v2.48h3.29v0.65h-3.29v2.99H1029.58z"/>
		<path class="st1" d="M1035.8,109.87v-6.8h4.31v0.68h-3.48v2.48h3.29v0.65h-3.29v2.99H1035.8z"/>
		<path class="st1" d="M1042.01,109.87v-6.8h0.83v6.8H1042.01z"/>
		<path class="st1" d="M1046.03,109.67c-0.38-0.17-0.63-0.47-0.77-0.91s-0.21-1.11-0.21-2.01v-0.57c0-0.89,0.07-1.55,0.22-1.99
			c0.15-0.44,0.41-0.75,0.78-0.92c0.38-0.17,0.95-0.25,1.71-0.25h0.18c0.67,0,1.19,0.06,1.54,0.18c0.36,0.12,0.61,0.31,0.75,0.58
			c0.14,0.27,0.22,0.67,0.22,1.18v0.21h-0.79v-0.16c0-0.37-0.04-0.64-0.14-0.83c-0.09-0.18-0.26-0.31-0.5-0.38s-0.61-0.11-1.09-0.11
			h-0.16c-0.56,0-0.97,0.06-1.23,0.18s-0.43,0.34-0.53,0.68c-0.1,0.34-0.14,0.89-0.14,1.64v0.56c0,0.76,0.05,1.31,0.14,1.65
			c0.1,0.34,0.27,0.57,0.53,0.68s0.67,0.17,1.25,0.17h0.15c0.5,0,0.87-0.04,1.12-0.11c0.24-0.07,0.41-0.2,0.5-0.38
			c0.09-0.19,0.14-0.47,0.14-0.85v-0.15h0.8v0.22c0,0.53-0.08,0.93-0.23,1.21s-0.41,0.47-0.77,0.58s-0.88,0.17-1.55,0.17h-0.19
			C1046.99,109.93,1046.41,109.84,1046.03,109.67z"/>
	</g>
	<g id="Group_3171" transform="translate(809 34)">
		<g id="Group_2793" transform="translate(0 0)">
			<g id="Path_1">
				<path class="st2" d="M49.23,19.51l4.96,0.01l2.41-11.1h13.32l-2.38,10.55c0,0,35.42,0,35.62,0.03c2.27,0.95,1.13,4.03,1.13,4.03
					l-2.69,10.86l-11.95-0.02l0.68-3.34l-5.26,0.02L81.23,47.4l5.3-0.04l0.75-3.34h11.57c0,0,0.15,10-6.83,13.89
					c0.02,0.12-20.7-0.02-20.8,0.03c-5.19-0.8-4.13-7.69-4.13-7.69L71.38,31h-6.54L61.3,46.86l2.87,0.02l-2.44,11.55H46.29
					c-1.24,0,0.24-4.71,0.24-4.71l5.23-23.22H46.9L49.23,19.51z"/>
			</g>
			<g id="Path_2">
				<path class="st3" d="M10.64,10.98L12.9,0.91h16.61l-8.1,36.17l12.42-17.43l14.02-0.02l-2.49,11.09H37.2c0,0-3.19,4.92-2.93,4.8
					c2.89,0.35,7.04-1.22,3.65,12.14c1.21,0.15,2.43,0.2,3.65,0.17l-2.41,10.73c0,0-14.49-0.12-14.44,0
					c-1.23-0.12-2.23-0.96-2.54-2.12l2.06-11.74l-4.56-0.03l-3.11,13.85L0,58.57l2.43-10.98l2.46-0.07l8.25-36.53L10.64,10.98z"/>
			</g>
			<g id="Path_3">
				<path class="st1" d="M111.62,42.99l0.13-0.44h7.81l-0.16,0.44c-0.58-0.04-1.15,0.13-1.62,0.48c-0.5,0.55-0.85,1.24-0.99,1.97
					l-2.92,10.23c-0.16,0.47-0.27,0.96-0.32,1.45c-0.01,0.26,0.11,0.51,0.32,0.66c0.5,0.25,1.05,0.37,1.61,0.32l-0.12,0.44h-7.94
					l0.13-0.44c0.62,0.05,1.23-0.11,1.74-0.45c0.51-0.55,0.85-1.24,1-1.98l2.96-10.23c0.15-0.47,0.23-0.95,0.26-1.44
					c0.01-0.27-0.11-0.52-0.33-0.67C112.71,43.09,112.17,42.97,111.62,42.99"/>
			</g>
			<g id="Path_4">
				<path class="st1" d="M124.12,47.61l-1.45,5.05c0.67-1.06,1.4-2.07,2.2-3.03c0.53-0.63,1.15-1.17,1.85-1.6
					c0.44-0.26,0.94-0.41,1.46-0.42c0.4,0,0.78,0.16,1.05,0.45c0.3,0.32,0.46,0.75,0.44,1.19c-0.02,0.54-0.12,1.08-0.29,1.6
					l-1.51,5.04c-0.09,0.28-0.16,0.57-0.19,0.86c0,0.08,0.04,0.16,0.1,0.21c0.05,0.05,0.11,0.09,0.18,0.1c0.09,0,0.18-0.04,0.25-0.1
					c0.32-0.28,0.6-0.61,0.83-0.97c0.07-0.11,0.18-0.27,0.34-0.5l0.45,0.28c-1.15,1.94-2.37,2.92-3.65,2.92
					c-0.42,0.02-0.82-0.11-1.14-0.38c-0.27-0.24-0.42-0.59-0.41-0.95c0.03-0.5,0.13-0.99,0.28-1.47l1.48-5.04
					c0.08-0.24,0.13-0.48,0.14-0.73c0-0.09-0.04-0.17-0.1-0.23c-0.07-0.06-0.16-0.1-0.25-0.1c-0.42,0.07-0.81,0.29-1.08,0.62
					c-1.3,1.35-2.37,2.92-3.15,4.63l-0.97,3.5h-3l2.2-7.57c0.17-0.51,0.28-1.04,0.32-1.58c0.02-0.26-0.15-0.49-0.4-0.56
					c-0.26-0.06-0.53-0.09-0.8-0.07l0.13-0.45l3.97-0.69L124.12,47.61z"/>
			</g>
			<g id="Path_5">
				<path class="st1" d="M138.03,44.73l-0.95,3.21h1.55l-0.43,1.36h-1.51l-1.98,6.84c-0.11,0.31-0.17,0.64-0.19,0.97
					c0,0.1,0.04,0.19,0.11,0.26c0.06,0.07,0.15,0.11,0.24,0.12c0.15-0.01,0.3-0.07,0.41-0.18c0.49-0.41,0.91-0.9,1.26-1.44
					l0.41,0.26c-0.43,0.82-1.04,1.53-1.79,2.07c-0.56,0.41-1.23,0.64-1.92,0.67c-0.45,0.03-0.9-0.12-1.25-0.41
					c-0.29-0.26-0.46-0.64-0.45-1.04c0.02-0.6,0.13-1.19,0.31-1.76l1.87-6.37h-1.61l0.23-0.88c0.9-0.32,1.76-0.76,2.55-1.3
					c0.92-0.71,1.75-1.51,2.5-2.4L138.03,44.73z"/>
			</g>
			<g id="Path_6">
				<path class="st1" d="M141.58,54.12c-0.07,0.42-0.11,0.84-0.12,1.26c-0.03,0.52,0.16,1.04,0.51,1.42
					c0.37,0.36,0.87,0.55,1.38,0.53c0.58,0,1.15-0.14,1.66-0.4c0.7-0.38,1.35-0.85,1.93-1.4l0.35,0.32
					c-0.73,0.94-1.62,1.73-2.64,2.33c-0.87,0.47-1.85,0.71-2.83,0.7c-1.01,0.12-2.01-0.23-2.73-0.94c-0.5-0.62-0.76-1.39-0.75-2.19
					c0.02-1.37,0.41-2.7,1.13-3.87c0.74-1.28,1.8-2.35,3.07-3.1c1.16-0.74,2.51-1.14,3.89-1.17c0.54-0.04,1.08,0.13,1.5,0.47
					c0.33,0.3,0.51,0.74,0.5,1.19c-0.01,0.6-0.18,1.18-0.5,1.68c-0.43,0.71-1.02,1.32-1.71,1.78c-0.72,0.46-1.5,0.81-2.33,1.03
					c-0.75,0.19-1.52,0.3-2.3,0.35 M141.67,53.5c0.55-0.06,1.1-0.2,1.61-0.41c0.42-0.21,0.8-0.5,1.12-0.85
					c0.4-0.44,0.72-0.94,0.95-1.48c0.25-0.52,0.38-1.09,0.4-1.67c0.01-0.19-0.06-0.37-0.18-0.51c-0.12-0.13-0.29-0.19-0.46-0.19
					c-0.51,0.08-0.97,0.36-1.27,0.79c-1.02,1.27-1.75,2.74-2.15,4.32"/>
			</g>
			<g id="Path_7">
				<path class="st1" d="M154.24,47.61l-1.77,6.62c1.47-3.23,2.57-5.22,3.3-5.96c0.35-0.4,0.85-0.64,1.38-0.66
					c0.3-0.01,0.6,0.13,0.79,0.36c0.22,0.29,0.33,0.65,0.31,1.02c0.02,0.68-0.17,1.35-0.56,1.92c-0.16,0.29-0.45,0.47-0.77,0.5
					c-0.31,0.01-0.59-0.16-0.72-0.44c-0.08-0.19-0.2-0.36-0.33-0.51c-0.06-0.05-0.13-0.07-0.2-0.07c-0.09,0-0.17,0.03-0.25,0.07
					c-0.27,0.18-0.5,0.41-0.68,0.68c-0.4,0.58-0.74,1.19-1.03,1.84c-0.4,0.86-0.72,1.58-0.95,2.17c-0.38,1.11-0.7,2.24-0.96,3.39
					h-2.86l1.95-7.82c0.1-0.38,0.17-0.77,0.2-1.16c0.01-0.17-0.03-0.34-0.11-0.48c-0.07-0.12-0.18-0.21-0.3-0.26
					c-0.26-0.08-0.53-0.1-0.8-0.09l0.1-0.34l3.56-0.78L154.24,47.61z"/>
			</g>
			<g id="Path_8">
				<path class="st1" d="M164.36,47.61l-1.45,5.06c0.67-1.06,1.4-2.07,2.2-3.03c0.53-0.63,1.15-1.17,1.85-1.6
					c0.44-0.26,0.94-0.41,1.46-0.42c0.4,0,0.78,0.16,1.05,0.45c0.3,0.32,0.46,0.75,0.44,1.19c-0.02,0.54-0.12,1.08-0.29,1.6
					l-1.51,5.04c-0.09,0.28-0.16,0.57-0.19,0.86c0,0.08,0.04,0.16,0.1,0.21c0.05,0.05,0.11,0.09,0.18,0.1c0.09,0,0.18-0.04,0.25-0.1
					c0.32-0.28,0.6-0.61,0.83-0.97c0.07-0.11,0.18-0.27,0.34-0.5l0.45,0.28c-1.15,1.94-2.37,2.92-3.65,2.92
					c-0.42,0.02-0.82-0.11-1.14-0.38c-0.27-0.24-0.42-0.59-0.41-0.95c0.03-0.5,0.12-0.99,0.28-1.47l1.48-5.04
					c0.08-0.24,0.13-0.48,0.15-0.73c0-0.09-0.04-0.17-0.1-0.23c-0.07-0.06-0.16-0.1-0.25-0.1c-0.42,0.07-0.81,0.29-1.08,0.62
					c-1.31,1.35-2.37,2.92-3.15,4.63l-0.97,3.5h-3l2.2-7.57c0.17-0.51,0.28-1.04,0.32-1.58c0.02-0.26-0.15-0.49-0.4-0.56
					c-0.26-0.06-0.53-0.09-0.8-0.07l0.13-0.45l3.97-0.69L164.36,47.61z"/>
			</g>
			<g id="Path_9">
				<path class="st1" d="M182.91,47.78l-2.29,7.83l-0.25,0.97c-0.02,0.08-0.03,0.17-0.03,0.25c0,0.09,0.03,0.18,0.1,0.25
					c0.05,0.06,0.12,0.09,0.2,0.1c0.26-0.05,0.5-0.18,0.69-0.37c0.31-0.34,0.59-0.71,0.85-1.08l0.41,0.21
					c-0.43,0.87-1.03,1.63-1.78,2.25c-0.59,0.45-1.31,0.7-2.05,0.7c-0.37,0.03-0.74-0.1-1.02-0.35c-0.23-0.23-0.36-0.55-0.35-0.88
					c0.06-0.58,0.18-1.16,0.38-1.71l0.28-0.95c-0.66,1.26-1.55,2.39-2.62,3.33c-0.44,0.36-1,0.57-1.57,0.57
					c-0.65,0.04-1.27-0.31-1.57-0.89c-0.33-0.62-0.49-1.31-0.48-2.01c0.06-1.33,0.4-2.64,1.02-3.82c0.61-1.34,1.52-2.53,2.66-3.46
					c0.7-0.64,1.6-1.02,2.55-1.08c0.39-0.02,0.77,0.12,1.06,0.38c0.33,0.39,0.54,0.88,0.59,1.39l0.43-1.45L182.91,47.78z
					 M179.13,50.02c0.04-0.48-0.06-0.96-0.29-1.38c-0.13-0.19-0.34-0.3-0.57-0.29c-0.29,0.02-0.56,0.14-0.76,0.35
					c-0.76,0.87-1.34,1.88-1.71,2.97c-0.55,1.22-0.86,2.53-0.91,3.86c-0.03,0.31,0.04,0.63,0.2,0.9c0.1,0.16,0.27,0.26,0.45,0.27
					c0.43-0.04,0.82-0.25,1.08-0.6c0.56-0.65,1.03-1.37,1.39-2.14C178.68,52.75,179.06,51.4,179.13,50.02"/>
			</g>
			<g id="Path_10">
				<path class="st1" d="M190.33,44.73l-0.95,3.21h1.55l-0.43,1.36h-1.51l-1.98,6.84c-0.11,0.31-0.17,0.64-0.19,0.97
					c0,0.1,0.04,0.19,0.11,0.26c0.06,0.07,0.15,0.11,0.24,0.12c0.15-0.01,0.3-0.07,0.41-0.18c0.49-0.41,0.91-0.9,1.26-1.44
					l0.41,0.26c-0.43,0.82-1.04,1.53-1.79,2.07c-0.56,0.41-1.23,0.64-1.92,0.67c-0.45,0.03-0.9-0.12-1.25-0.41
					c-0.29-0.26-0.46-0.64-0.45-1.04c0.02-0.6,0.13-1.19,0.31-1.76l1.87-6.37h-1.61l0.23-0.88c0.9-0.32,1.76-0.76,2.55-1.3
					c0.92-0.71,1.76-1.51,2.5-2.4L190.33,44.73z"/>
			</g>
			<g id="Path_11">
				<path class="st1" d="M196.25,47.61l-2.42,8.38c-0.1,0.31-0.16,0.63-0.19,0.95c0,0.09,0.04,0.17,0.1,0.23
					c0.05,0.07,0.13,0.11,0.22,0.12c0.15,0,0.29-0.07,0.4-0.18c0.5-0.46,0.93-0.99,1.27-1.58l0.41,0.23
					c-1.19,2.07-2.46,3.11-3.79,3.11c-0.45,0.02-0.88-0.13-1.22-0.43c-0.3-0.28-0.47-0.68-0.45-1.09c0.01-0.38,0.08-0.75,0.2-1.11
					l1.64-5.64c0.13-0.39,0.21-0.8,0.23-1.22c0-0.18-0.09-0.35-0.23-0.47c-0.17-0.14-0.39-0.22-0.61-0.21
					c-0.13,0-0.27,0.01-0.42,0.01l0.15-0.47l4-0.65h0.71L196.25,47.61L196.25,47.61z M195.52,42.18c0.47-0.01,0.91,0.18,1.24,0.51
					c0.33,0.32,0.51,0.77,0.5,1.23c0.01,0.46-0.18,0.9-0.51,1.22c-0.32,0.33-0.77,0.51-1.23,0.5c-0.95-0.01-1.72-0.78-1.71-1.73
					c-0.01-0.46,0.17-0.91,0.5-1.23C194.63,42.35,195.07,42.17,195.52,42.18"/>
			</g>
			<g id="Path_12">
				<path class="st1" d="M204.75,47.61c0.61,0,1.21,0.15,1.74,0.43c0.52,0.27,0.95,0.68,1.24,1.19c0.28,0.52,0.43,1.11,0.42,1.7
					c-0.02,1.34-0.38,2.66-1.06,3.81c-0.66,1.23-1.63,2.27-2.81,3.02c-1.04,0.7-2.26,1.08-3.51,1.11c-0.93,0.06-1.84-0.29-2.49-0.96
					c-0.58-0.64-0.9-1.47-0.88-2.34c-0.01-1.06,0.22-2.11,0.66-3.08c0.41-0.92,0.97-1.76,1.66-2.5c0.67-0.71,1.45-1.29,2.31-1.73
					C202.87,47.85,203.8,47.62,204.75,47.61 M204.27,48.23c-0.38-0.01-0.75,0.12-1.04,0.37c-0.85,1.02-1.48,2.21-1.86,3.48
					c-0.64,1.57-0.99,3.24-1.04,4.93c-0.01,0.33,0.11,0.65,0.33,0.89c0.2,0.22,0.48,0.35,0.78,0.35c0.29,0,0.58-0.09,0.81-0.28
					c0.54-0.55,0.97-1.19,1.28-1.9c0.52-1.04,0.94-2.14,1.24-3.26c0.3-1.07,0.47-2.17,0.48-3.28c0.02-0.34-0.08-0.68-0.3-0.95
					C204.78,48.36,204.53,48.24,204.27,48.23"/>
			</g>
			<g id="Path_13">
				<path class="st1" d="M215.31,47.61l-1.45,5.05c0.67-1.06,1.4-2.07,2.2-3.03c0.53-0.63,1.15-1.17,1.85-1.6
					c0.44-0.26,0.94-0.41,1.46-0.42c0.4,0,0.78,0.16,1.05,0.45c0.3,0.32,0.46,0.75,0.44,1.19c-0.02,0.54-0.12,1.08-0.29,1.6
					l-1.51,5.04c-0.09,0.28-0.16,0.57-0.19,0.86c0,0.08,0.04,0.16,0.1,0.21c0.05,0.05,0.11,0.09,0.18,0.1c0.09,0,0.18-0.04,0.25-0.1
					c0.32-0.28,0.6-0.61,0.83-0.97c0.07-0.11,0.18-0.27,0.34-0.5l0.45,0.28c-1.15,1.94-2.37,2.92-3.65,2.92
					c-0.42,0.02-0.82-0.11-1.14-0.38c-0.27-0.24-0.42-0.59-0.41-0.95c0.03-0.5,0.12-0.99,0.28-1.47l1.48-5.04
					c0.08-0.24,0.13-0.48,0.15-0.73c0-0.09-0.04-0.17-0.1-0.23c-0.07-0.06-0.16-0.1-0.25-0.1c-0.42,0.07-0.81,0.29-1.08,0.62
					c-1.31,1.35-2.37,2.92-3.15,4.63l-0.97,3.5h-3l2.2-7.57c0.17-0.51,0.28-1.04,0.32-1.58c0-0.12-0.03-0.24-0.1-0.35
					c-0.08-0.1-0.18-0.18-0.31-0.21c-0.26-0.06-0.53-0.09-0.8-0.07l0.13-0.45l3.97-0.69L215.31,47.61z"/>
			</g>
			<g id="Path_14">
				<path class="st1" d="M233.86,47.78l-2.29,7.83l-0.25,0.97c-0.02,0.08-0.03,0.17-0.03,0.25c0,0.09,0.03,0.18,0.1,0.25
					c0.05,0.06,0.12,0.09,0.2,0.1c0.26-0.05,0.5-0.18,0.69-0.37c0.31-0.34,0.59-0.71,0.85-1.08l0.41,0.21
					c-0.43,0.87-1.03,1.63-1.78,2.25c-0.59,0.45-1.31,0.7-2.05,0.7c-0.37,0.03-0.74-0.1-1.02-0.35c-0.23-0.23-0.36-0.55-0.35-0.88
					c0.06-0.58,0.18-1.16,0.38-1.71L229,55c-0.66,1.26-1.55,2.39-2.62,3.33c-0.44,0.36-1,0.57-1.57,0.57
					c-0.65,0.04-1.27-0.31-1.57-0.89c-0.33-0.62-0.49-1.31-0.48-2.01c0.06-1.33,0.4-2.64,1.02-3.82c0.61-1.34,1.52-2.53,2.66-3.46
					c0.7-0.64,1.6-1.02,2.55-1.08c0.39-0.02,0.77,0.12,1.06,0.38c0.33,0.39,0.54,0.88,0.59,1.39l0.43-1.45L233.86,47.78z
					 M230.09,50.02c0.04-0.48-0.06-0.96-0.29-1.38c-0.13-0.19-0.34-0.3-0.57-0.29c-0.29,0.02-0.56,0.14-0.76,0.35
					c-0.76,0.87-1.34,1.88-1.71,2.97c-0.55,1.22-0.86,2.53-0.91,3.86c-0.03,0.31,0.04,0.63,0.2,0.9c0.1,0.16,0.27,0.26,0.45,0.27
					c0.43-0.04,0.82-0.25,1.08-0.6c0.56-0.65,1.03-1.37,1.39-2.14C229.64,52.75,230.02,51.4,230.09,50.02"/>
			</g>
			<g id="Path_15">
				<path class="st1" d="M242,42.18l-3.91,13.27c-0.16,0.48-0.27,0.98-0.34,1.48c0,0.09,0.03,0.18,0.1,0.25
					c0.06,0.06,0.14,0.1,0.22,0.1c0.15,0,0.29-0.06,0.4-0.16c0.5-0.45,0.92-0.97,1.26-1.55l0.45,0.2c-0.56,0.99-1.31,1.86-2.2,2.56
					c-0.46,0.34-1.01,0.52-1.58,0.53c-0.45,0.02-0.9-0.13-1.24-0.43c-0.29-0.25-0.46-0.62-0.46-1.01c0.03-0.48,0.13-0.95,0.28-1.41
					l3.19-10.86c0.13-0.38,0.22-0.78,0.26-1.18c0-0.18-0.09-0.35-0.25-0.45c-0.31-0.17-0.66-0.24-1.01-0.19l0.13-0.45l3.97-0.7H242z
					"/>
			</g>
		</g>
	</g>
</g>
</svg>
